# Blender v3.0.0 OBJ File: ''
# www.blender.org
mtllib exported2.mtl
o Cube
v 1.000000 1.000000 -1.000000
v 1.000000 -1.000000 -1.000000
v 1.000000 1.000000 1.000000
v 1.000000 -1.000000 1.000000
v -1.000000 1.000000 -1.000000
v -1.000000 -1.000000 -1.000000
v -1.000000 1.000000 1.000000
v -1.000000 -1.000000 1.000000
v -1.000000 -1.000000 0.000000
v 0.000000 -1.000000 -1.000000
v 1.000000 0.000000 -1.000000
v -1.000000 0.000000 1.000000
v 1.000000 0.000000 1.000000
v -1.000000 0.000000 -1.000000
v 0.000000 1.000000 1.000000
v 1.000000 1.000000 0.000000
v 0.000000 -1.000000 1.000000
v -1.000000 1.000000 0.000000
v 0.000000 1.000000 -1.000000
v 1.000000 -1.000000 0.000000
v 1.819777 -1.112431 -4.829296
v 3.343014 -0.226943 -0.322413
v 1.671585 -1.959730 -0.742635
v -3.338199 -1.448151 2.486045
v 1.725102 -2.861488 1.752080
v 2.197989 3.902835 -1.443675
vt 0.750000 0.625000
vt 0.875000 0.625000
vt 0.875000 0.750000
vt 0.750000 0.750000
vt 0.500000 0.875000
vt 0.625000 0.875000
vt 0.625000 1.000000
vt 0.500000 1.000000
vt 0.500000 0.125000
vt 0.625000 0.125000
vt 0.625000 0.250000
vt 0.500000 0.250000
vt 0.250000 0.625000
vt 0.375000 0.625000
vt 0.375000 0.750000
vt 0.250000 0.750000
vt 0.500000 0.625000
vt 0.625000 0.625000
vt 0.625000 0.750000
vt 0.500000 0.750000
vt 0.500000 0.375000
vt 0.625000 0.375000
vt 0.625000 0.500000
vt 0.500000 0.500000
vt 0.375000 0.375000
vt 0.375000 0.500000
vt 0.375000 0.250000
vt 0.125000 0.625000
vt 0.125000 0.750000
vt 0.125000 0.500000
vt 0.250000 0.500000
vt 0.375000 0.125000
vt 0.375000 0.000000
vt 0.500000 0.000000
vt 0.625000 0.000000
vt 0.375000 0.875000
vt 0.375000 1.000000
vt 0.750000 0.500000
vt 0.875000 0.500000
vn -0.4160 0.8086 0.4160
vn -0.1127 0.1127 0.9872
vn -0.8735 0.3442 -0.3442
vn 0.5551 -0.6195 0.5551
vn 0.6098 0.5604 0.5604
vn 0.6878 0.6878 -0.2322
vn 0.6969 -0.6969 0.1696
vn -0.6325 -0.6325 -0.4472
vn -0.5228 0.5228 -0.6734
vn 0.5345 -0.5976 0.5976
vn 0.4010 -0.6478 -0.6478
vn 0.4983 0.6131 -0.6131
vn -0.2078 -0.9558 0.2078
vn -0.2973 -0.9073 -0.2973
vn 0.6763 0.2919 -0.6763
vn -0.6765 -0.5207 -0.5207
vn 0.5049 -0.6104 0.6104
vn -0.2794 0.6790 0.6790
vn -0.5489 -0.5489 0.6303
vn 0.2689 -0.2689 -0.9249
vn 0.2271 0.2271 0.9470
vn 0.6766 0.2904 0.6766
vn 0.6566 -0.3713 -0.6566
vn -0.5872 0.5571 -0.5872
usemtl Material
s off
f 26/1/1 18/2/1 7/3/1 15/4/1
f 25/5/2 15/6/2 7/7/2 12/8/2
f 24/9/3 18/10/3 5/11/3 14/12/3
f 23/13/4 20/14/4 4/15/4 17/16/4
f 22/17/5 16/18/5 3/19/5 13/20/5
f 21/21/6 19/22/6 1/23/6 11/24/6
f 10/25/7 21/21/7 11/24/7 2/26/7
f 6/27/8 14/12/8 21/21/8 10/25/8
f 14/12/9 5/11/9 19/22/9 21/21/9
f 20/14/10 22/17/10 13/20/10 4/15/10
f 2/26/11 11/24/11 22/17/11 20/14/11
f 11/24/12 1/23/12 16/18/12 22/17/12
f 9/28/13 23/13/13 17/16/13 8/29/13
f 6/30/14 10/31/14 23/13/14 9/28/14
f 10/31/15 2/26/15 20/14/15 23/13/15
f 9/32/16 24/9/16 14/12/16 6/27/16
f 8/33/17 12/34/17 24/9/17 9/32/17
f 12/34/18 7/35/18 18/10/18 24/9/18
f 17/36/19 25/5/19 12/8/19 8/37/19
f 4/15/20 13/20/20 25/5/20 17/36/20
f 13/20/21 3/19/21 15/6/21 25/5/21
f 16/18/22 26/1/22 15/4/22 3/19/22
f 1/23/23 19/38/23 26/1/23 16/18/23
f 19/38/24 5/39/24 18/2/24 26/1/24
